<?xml version="1.0" encoding="UTF-8" standalone="no"?>
<!DOCTYPE svg PUBLIC "-//W3C//DTD SVG 1.1//EN"
 "http://www.w3.org/Graphics/SVG/1.1/DTD/svg11.dtd">
<!-- Generated by graphviz version 2.43.0 (0)
 -->
<!-- Title: finite_state_machine Pages: 1 -->
<svg width="810pt" height="694pt"
 viewBox="0.00 0.00 810.27 693.93" xmlns="http://www.w3.org/2000/svg" xmlns:xlink="http://www.w3.org/1999/xlink">
<g id="graph0" class="graph" transform="scale(1 1) rotate(0) translate(36 657.93)">
<title>finite_state_machine</title>
<polygon fill="white" stroke="transparent" points="-36,36 -36,-657.93 774.27,-657.93 774.27,36 -36,36"/>
<!-- inProgress -->
<g id="node1" class="node">
<title>inProgress</title>
<ellipse fill="none" stroke="black" cx="370.44" cy="-297.93" rx="52.79" ry="18"/>
<text text-anchor="middle" x="370.44" y="-294.23" font-family="Helvetica,Arial,sans-serif" font-size="14.00">inProgress</text>
</g>
<!-- inProgress&#45;&gt;inProgress -->
<g id="edge8" class="edge">
<title>inProgress&#45;&gt;inProgress</title>
<path fill="none" stroke="black" d="M353.46,-315.16C331.08,-346.39 336.74,-387.93 370.44,-387.93 401.11,-387.93 408.55,-353.52 392.77,-323.79"/>
<polygon fill="black" stroke="black" points="395.66,-321.81 387.42,-315.16 389.71,-325.5 395.66,-321.81"/>
<text text-anchor="middle" x="370.44" y="-391.73" font-family="Helvetica,Arial,sans-serif" font-size="14.00">changeInput</text>
</g>
<!-- cancelled -->
<g id="node2" class="node">
<title>cancelled</title>
<ellipse fill="none" stroke="black" cx="690.18" cy="-573.93" rx="48.19" ry="18"/>
<text text-anchor="middle" x="690.18" y="-570.23" font-family="Helvetica,Arial,sans-serif" font-size="14.00">cancelled</text>
</g>
<!-- inProgress&#45;&gt;cancelled -->
<g id="edge1" class="edge">
<title>inProgress&#45;&gt;cancelled</title>
<path fill="none" stroke="black" d="M372.61,-316.26C377.14,-369.75 398.48,-525.93 495.08,-589.93 540.75,-620.18 606.35,-605.74 648.37,-591.05"/>
<polygon fill="black" stroke="black" points="649.8,-594.25 657.99,-587.54 647.4,-587.68 649.8,-594.25"/>
<text text-anchor="middle" x="532.58" y="-610.73" font-family="Helvetica,Arial,sans-serif" font-size="14.00">cancel</text>
</g>
<!-- received -->
<g id="node3" class="node">
<title>received</title>
<ellipse fill="none" stroke="black" cx="690.18" cy="-297.93" rx="44.39" ry="18"/>
<text text-anchor="middle" x="690.18" y="-294.23" font-family="Helvetica,Arial,sans-serif" font-size="14.00">received</text>
</g>
<!-- inProgress&#45;&gt;received -->
<g id="edge2" class="edge">
<title>inProgress&#45;&gt;received</title>
<path fill="none" stroke="gray" d="M418.56,-305.48C441.57,-308.79 469.7,-312.29 495.08,-313.93 528.35,-316.07 536.82,-316.15 570.08,-313.93 592.8,-312.41 617.79,-309.28 638.99,-306.18"/>
<polygon fill="gray" stroke="gray" points="639.7,-309.62 649.07,-304.68 638.66,-302.7 639.7,-309.62"/>
<text text-anchor="middle" x="532.58" y="-318.73" font-family="Helvetica,Arial,sans-serif" font-size="14.00" fill="gray">onReceived</text>
</g>
<!-- failed -->
<g id="node4" class="node">
<title>failed</title>
<ellipse fill="none" stroke="black" cx="690.18" cy="-21.93" rx="31.7" ry="18"/>
<text text-anchor="middle" x="690.18" y="-18.23" font-family="Helvetica,Arial,sans-serif" font-size="14.00">failed</text>
</g>
<!-- inProgress&#45;&gt;failed -->
<g id="edge3" class="edge">
<title>inProgress&#45;&gt;failed</title>
<path fill="none" stroke="gray" d="M390.83,-281.08C445.9,-233.25 603.12,-96.68 664.35,-43.5"/>
<polygon fill="gray" stroke="gray" points="666.74,-46.05 672,-36.85 662.15,-40.77 666.74,-46.05"/>
<text text-anchor="middle" x="532.58" y="-188.73" font-family="Helvetica,Arial,sans-serif" font-size="14.00" fill="gray">onFailed</text>
</g>
<!-- cancelled&#45;&gt;inProgress -->
<g id="edge5" class="edge">
<title>cancelled&#45;&gt;inProgress</title>
<path fill="none" stroke="black" d="M647.31,-565.72C605.06,-555.69 539.83,-535.25 495.08,-497.93 437.47,-449.88 398.86,-367.76 381.65,-325.24"/>
<polygon fill="black" stroke="black" points="384.86,-323.83 377.93,-315.81 378.35,-326.4 384.86,-323.83"/>
<text text-anchor="middle" x="532.58" y="-543.73" font-family="Helvetica,Arial,sans-serif" font-size="14.00">retry</text>
</g>
<!-- cancelled&#45;&gt;inProgress -->
<g id="edge11" class="edge">
<title>cancelled&#45;&gt;inProgress</title>
<path fill="none" stroke="black" d="M670.03,-557.3C615.93,-510.3 461.74,-376.37 398.75,-321.65"/>
<polygon fill="black" stroke="black" points="400.68,-318.69 390.83,-314.78 396.09,-323.98 400.68,-318.69"/>
<text text-anchor="middle" x="532.58" y="-471.73" font-family="Helvetica,Arial,sans-serif" font-size="14.00">changeInput</text>
</g>
<!-- received&#45;&gt;inProgress -->
<g id="edge4" class="edge">
<title>received&#45;&gt;inProgress</title>
<path fill="none" stroke="black" d="M646.19,-295.69C623.55,-294.62 595.32,-293.46 570.08,-292.93 536.76,-292.23 528.41,-292.26 495.08,-292.93 474.87,-293.34 452.81,-294.12 432.99,-294.95"/>
<polygon fill="black" stroke="black" points="432.7,-291.46 422.86,-295.38 433,-298.45 432.7,-291.46"/>
<text text-anchor="middle" x="532.58" y="-296.73" font-family="Helvetica,Arial,sans-serif" font-size="14.00">reload</text>
</g>
<!-- received&#45;&gt;inProgress -->
<g id="edge9" class="edge">
<title>received&#45;&gt;inProgress</title>
<path fill="none" stroke="black" d="M658.47,-285.23C634.79,-276.16 600.96,-264.74 570.08,-259.93 537.15,-254.8 528.05,-254.98 495.08,-259.93 467.88,-264.02 438.4,-272.89 415.05,-281.04"/>
<polygon fill="black" stroke="black" points="413.68,-277.81 405.44,-284.47 416.03,-284.4 413.68,-277.81"/>
<text text-anchor="middle" x="532.58" y="-263.73" font-family="Helvetica,Arial,sans-serif" font-size="14.00">changeInput</text>
</g>
<!-- failed&#45;&gt;inProgress -->
<g id="edge6" class="edge">
<title>failed&#45;&gt;inProgress</title>
<path fill="none" stroke="black" d="M659.5,-26.81C618.58,-34.84 544.3,-54.17 495.08,-94.93 436.53,-143.42 398.22,-227.25 381.34,-270.44"/>
<polygon fill="black" stroke="black" points="377.98,-269.42 377.69,-280.01 384.52,-271.91 377.98,-269.42"/>
<text text-anchor="middle" x="532.58" y="-98.73" font-family="Helvetica,Arial,sans-serif" font-size="14.00">retry</text>
</g>
<!-- failed&#45;&gt;inProgress -->
<g id="edge10" class="edge">
<title>failed&#45;&gt;inProgress</title>
<path fill="none" stroke="black" d="M662.14,-13.17C622.09,-1.98 546.25,12.27 495.08,-20.93 407.95,-77.46 381.68,-211.29 374.22,-269.77"/>
<polygon fill="black" stroke="black" points="370.73,-269.43 373.03,-279.78 377.68,-270.26 370.73,-269.43"/>
<text text-anchor="middle" x="532.58" y="-24.73" font-family="Helvetica,Arial,sans-serif" font-size="14.00">changeInput</text>
</g>
<!-- undefined -->
<g id="node5" class="node">
<title>undefined</title>
<ellipse fill="none" stroke="black" cx="49.4" cy="-297.93" rx="49.29" ry="18"/>
<text text-anchor="middle" x="49.4" y="-294.23" font-family="Helvetica,Arial,sans-serif" font-size="14.00">undefined</text>
</g>
<!-- undefined&#45;&gt;inProgress -->
<g id="edge7" class="edge">
<title>undefined&#45;&gt;inProgress</title>
<path fill="none" stroke="black" d="M98.85,-297.93C154.63,-297.93 246.38,-297.93 307.35,-297.93"/>
<polygon fill="black" stroke="black" points="307.61,-301.43 317.61,-297.93 307.61,-294.43 307.61,-301.43"/>
<text text-anchor="middle" x="208.29" y="-301.73" font-family="Helvetica,Arial,sans-serif" font-size="14.00">changeInput</text>
</g>
</g>
</svg>
