<?xml version="1.0" encoding="UTF-8" standalone="no"?>
<!DOCTYPE svg PUBLIC "-//W3C//DTD SVG 1.1//EN"
 "http://www.w3.org/Graphics/SVG/1.1/DTD/svg11.dtd">
<!-- Generated by graphviz version 2.43.0 (0)
 -->
<!-- Title: finite_state_machine Pages: 1 -->
<svg width="714pt" height="126pt"
 viewBox="0.00 0.00 713.88 125.99" xmlns="http://www.w3.org/2000/svg" xmlns:xlink="http://www.w3.org/1999/xlink">
<g id="graph0" class="graph" transform="scale(1 1) rotate(0) translate(36 89.99)">
<title>finite_state_machine</title>
<polygon fill="white" stroke="transparent" points="-36,36 -36,-89.99 677.88,-89.99 677.88,36 -36,36"/>
<!-- undefined -->
<g id="node1" class="node">
<title>undefined</title>
<ellipse fill="none" stroke="black" cx="49.4" cy="-35.99" rx="49.29" ry="18"/>
<text text-anchor="middle" x="49.4" y="-32.29" font-family="Helvetica,Arial,sans-serif" font-size="14.00">undefined</text>
</g>
<!-- locked -->
<g id="node2" class="node">
<title>locked</title>
<ellipse fill="none" stroke="black" cx="307.19" cy="-35.99" rx="36.29" ry="18"/>
<text text-anchor="middle" x="307.19" y="-32.29" font-family="Helvetica,Arial,sans-serif" font-size="14.00">locked</text>
</g>
<!-- undefined&#45;&gt;locked -->
<g id="edge1" class="edge">
<title>undefined&#45;&gt;locked</title>
<path fill="none" stroke="black" d="M98.81,-35.99C145.3,-35.99 215.01,-35.99 260.55,-35.99"/>
<polygon fill="black" stroke="black" points="260.73,-39.49 270.73,-35.99 260.73,-32.49 260.73,-39.49"/>
<text text-anchor="middle" x="184.79" y="-39.79" font-family="Helvetica,Arial,sans-serif" font-size="14.00">start</text>
</g>
<!-- unlocked -->
<g id="node3" class="node">
<title>unlocked</title>
<ellipse fill="none" stroke="black" cx="595.73" cy="-35.99" rx="46.29" ry="18"/>
<text text-anchor="middle" x="595.73" y="-32.29" font-family="Helvetica,Arial,sans-serif" font-size="14.00">unlocked</text>
</g>
<!-- locked&#45;&gt;unlocked -->
<g id="edge2" class="edge">
<title>locked&#45;&gt;unlocked</title>
<path fill="none" stroke="black" d="M343.61,-35.99C392.63,-35.99 481.62,-35.99 539.43,-35.99"/>
<polygon fill="black" stroke="black" points="539.49,-39.49 549.49,-35.99 539.49,-32.49 539.49,-39.49"/>
<text text-anchor="middle" x="446.58" y="-39.79" font-family="Helvetica,Arial,sans-serif" font-size="14.00">insertCoin</text>
</g>
<!-- unlocked&#45;&gt;locked -->
<g id="edge3" class="edge">
<title>unlocked&#45;&gt;locked</title>
<path fill="none" stroke="black" d="M561.17,-23.88C538.02,-16.19 506.36,-6.97 477.58,-2.99 450.29,0.78 442.83,1.1 415.58,-2.99 391.88,-6.55 366.19,-14.3 345.87,-21.39"/>
<polygon fill="black" stroke="black" points="344.6,-18.13 336.37,-24.8 346.96,-24.72 344.6,-18.13"/>
<text text-anchor="middle" x="446.58" y="-6.79" font-family="Helvetica,Arial,sans-serif" font-size="14.00">pushArm</text>
</g>
</g>
</svg>
